{"glyphs":{"0":{"ha":1114,"x_min":0,"x_max":0,"o":"m 698 991 l 281 991 b 83 909 204 991 138 964 b 0 710 28 854 0 787 l 0 294 b 83 95 0 216 28 150 b 281 12 138 40 204 12 l 698 12 b 897 95 775 12 842 40 b 979 294 951 150 979 216 l 979 710 b 897 909 979 787 951 854 b 698 991 842 964 775 991 z m 852 294 b 807 184 852 251 837 215 b 698 139 777 155 740 139 l 281 139 b 172 184 239 139 203 155 b 127 294 142 215 127 251 l 127 710 b 172 819 127 752 142 789 b 281 864 203 849 239 864 l 698 864 b 807 819 740 864 777 849 b 852 710 837 789 852 752 l 852 294 z "},"1":{"ha":492,"x_min":0,"x_max":0,"o":"m 292 985 l 64 985 b 18 966 45 985 31 979 b 0 922 7 955 1 940 b 19 877 1 904 7 888 b 64 859 31 865 46 859 l 229 859 l 230 67 b 249 22 231 49 237 34 b 294 3 261 9 276 3 b 338 22 311 4 326 10 b 357 67 350 34 356 49 l 356 922 b 337 967 355 940 349 955 b 292 985 325 979 310 985 z "},"2":{"ha":1094,"x_min":0,"x_max":0,"o":"m 895 998 l 64 998 b 19 980 46 998 31 992 b 0 935 6 967 0 952 b 19 890 0 918 6 903 b 64 871 31 878 46 871 l 831 871 l 831 565 l 210 565 b 62 503 153 565 103 545 b 0 355 21 463 0 413 l 0 68 b 19 24 0 51 6 36 b 64 5 31 11 46 5 l 895 5 b 940 24 912 5 928 11 b 958 68 952 36 958 51 b 940 113 958 86 952 101 b 895 132 928 125 912 132 l 127 132 l 127 355 b 151 414 127 378 135 397 b 210 438 168 430 187 438 l 895 438 b 940 456 912 438 928 444 b 958 502 952 469 958 484 l 958 935 b 940 980 958 952 952 967 b 895 998 928 992 912 998 z "},"3":{"ha":1125,"x_min":0,"x_max":0,"o":"m 722 991 l 63 991 b 18 972 45 991 31 985 b 0 928 6 960 0 945 b 18 883 0 910 6 895 b 63 864 31 870 45 864 l 722 864 b 821 823 761 864 794 850 b 863 724 849 795 863 762 l 863 565 l 383 565 b 338 547 366 565 351 559 b 320 502 326 534 320 519 b 338 456 320 484 326 469 b 383 438 351 444 366 438 l 863 438 l 863 139 l 63 139 b 18 121 45 139 31 133 b 0 75 6 108 0 93 b 18 31 0 58 6 43 b 63 12 31 18 45 12 l 926 12 b 971 31 943 12 959 18 b 989 75 983 43 989 58 l 989 724 b 911 912 989 797 964 860 b 722 991 859 965 795 991 z "},"4":{"ha":1115,"x_min":0,"x_max":0,"o":"m 916 985 b 871 967 898 985 883 979 b 852 922 859 954 852 939 l 852 559 l 294 559 b 176 608 248 559 209 576 b 127 726 143 641 127 680 l 127 922 b 109 967 127 939 121 954 b 64 985 96 979 81 985 b 19 967 46 985 31 979 b 0 922 7 954 0 939 l 0 726 b 86 519 0 645 29 576 b 294 433 144 461 213 433 l 852 433 l 852 70 b 871 25 852 53 859 37 b 916 7 883 13 898 7 b 960 25 933 7 948 13 b 979 70 973 37 979 53 l 979 922 b 960 967 979 939 973 954 b 916 985 948 979 933 985 z "},"5":{"ha":1094,"x_min":0,"x_max":0,"o":"m 895 859 b 939 877 912 859 927 865 b 958 922 952 890 958 905 b 939 967 958 939 952 954 b 895 985 927 979 912 985 l 64 985 b 18 967 46 985 31 979 b 0 922 6 954 0 939 l 0 489 b 18 444 0 471 6 456 b 64 425 31 431 46 425 l 748 425 b 807 401 771 425 791 417 b 831 342 823 385 831 365 l 831 119 l 64 119 b 18 100 46 119 31 113 b 0 56 6 88 0 73 b 18 11 0 38 6 23 b 64 -8 31 -2 46 -8 l 895 -8 b 939 11 912 -8 927 -2 b 958 56 952 23 958 38 l 958 342 b 897 490 958 400 938 450 b 748 552 856 532 806 552 l 127 552 l 127 859 l 895 859 z "},"6":{"ha":1139,"x_min":0,"x_max":0,"o":"m 747 552 l 127 552 l 127 637 b 190 789 127 696 148 747 b 341 851 232 830 282 851 l 926 851 b 971 870 944 851 959 857 b 989 915 983 882 989 897 b 971 960 989 932 983 947 b 926 978 959 972 944 978 l 341 978 b 100 878 247 978 167 945 b 0 637 33 811 0 731 l 0 340 b 100 100 0 246 33 166 b 341 -1 167 33 247 -1 l 747 -1 b 928 75 818 -1 878 24 b 1004 256 979 125 1004 185 l 1004 295 b 928 477 1004 366 979 427 b 747 552 878 527 818 552 z m 877 256 b 839 164 877 220 864 190 b 747 126 814 139 783 126 l 341 126 b 190 189 282 126 232 147 b 127 340 148 231 127 281 l 127 425 l 747 425 b 839 387 783 425 814 412 b 877 295 864 361 877 331 l 877 256 z "},"7":{"ha":1115,"x_min":0,"x_max":0,"o":"m 978 932 b 977 939 978 935 977 937 b 975 944 976 941 975 943 b 972 950 974 946 973 948 b 969 956 971 951 970 954 b 966 960 968 957 967 959 b 962 965 965 962 964 964 b 958 969 960 966 959 968 b 953 973 956 970 955 972 b 947 977 951 975 949 976 b 946 978 947 977 946 977 b 944 979 945 978 945 979 b 943 979 944 979 943 979 b 942 979 943 979 943 979 b 936 982 940 981 938 981 b 935 982 936 982 935 982 b 930 983 933 983 932 983 b 926 985 928 984 927 984 b 924 985 925 985 925 985 b 918 985 922 985 920 985 b 917 985 917 985 917 985 b 916 985 916 985 916 985 l 64 985 b 19 967 46 985 31 979 b 0 922 7 954 0 939 b 19 877 0 905 7 890 b 64 859 31 865 46 859 l 813 859 l 433 98 b 429 50 425 82 424 66 b 461 14 435 34 446 22 b 490 7 471 9 480 7 b 547 42 513 7 532 18 l 972 894 b 972 895 972 894 972 895 b 973 895 972 895 973 895 b 975 902 974 897 975 900 b 976 903 975 902 976 903 b 977 907 977 904 977 906 b 978 913 977 909 978 911 b 978 913 978 913 978 913 b 979 920 979 916 979 918 b 979 921 979 920 979 921 b 979 922 979 922 979 922 b 979 924 979 923 979 924 b 979 926 979 924 979 925 b 978 932 979 928 979 930 z "},"8":{"ha":1138,"x_min":0,"x_max":0,"o":"m 1002 751 b 932 918 1002 816 979 871 b 765 987 886 964 831 987 l 237 987 b 69 918 172 987 116 964 b 0 751 23 871 0 816 b 83 571 0 679 28 618 b 0 381 28 519 0 456 l 0 261 b 76 78 0 190 25 129 b 259 2 127 27 188 2 l 743 2 b 926 78 814 2 876 27 b 1002 261 977 129 1002 190 l 1002 381 b 919 571 1002 456 975 519 b 1002 751 975 618 1002 679 z m 876 261 b 836 168 876 224 863 193 b 743 129 810 142 779 129 l 259 129 b 165 168 222 129 191 142 b 127 261 140 193 127 224 l 127 381 b 165 475 127 418 140 449 b 259 513 191 500 222 513 l 743 513 b 836 475 779 513 810 500 b 876 381 863 449 876 418 l 876 261 z m 765 640 l 237 640 b 159 673 206 640 180 651 b 127 751 138 694 127 720 b 159 829 127 781 138 807 b 237 861 180 850 206 861 l 765 861 b 843 829 795 861 821 850 b 876 751 865 807 876 781 b 843 673 876 720 865 694 b 765 640 821 651 795 640 z "},"9":{"ha":1139,"x_min":0,"x_max":0,"o":"m 663 991 l 257 991 b 75 916 186 991 125 966 b 0 734 25 865 0 805 l 0 695 b 75 513 0 625 25 564 b 257 438 125 463 186 438 l 877 438 l 877 353 b 814 202 877 294 856 244 b 663 139 772 160 722 139 l 77 139 b 33 121 60 139 45 133 b 14 76 20 109 14 94 b 33 31 14 58 20 43 b 77 12 45 18 60 12 l 663 12 b 904 113 757 12 837 45 b 1004 353 970 179 1004 260 l 1004 650 b 904 891 1004 744 970 825 b 663 991 837 958 757 991 z m 877 565 l 257 565 b 165 604 221 565 191 578 b 127 695 140 629 127 659 l 127 734 b 165 826 127 770 140 801 b 257 864 191 852 221 864 l 663 864 b 814 802 722 864 772 844 b 877 650 856 760 877 709 l 877 565 z "},"\u0000":{"ha":694,"x_min":0,"x_max":0,"o":"m 68 0 l 627 0 l 627 972 l 68 972 z m 102 34 l 102 939 l 593 939 l 593 34 z m 220 779 l 220 748 b 258 775 234 760 247 768 b 305 787 273 783 288 787 b 367 764 332 787 352 779 b 389 703 382 749 389 729 b 334 556 389 669 371 621 b 279 408 297 492 279 443 b 302 308 279 385 287 352 l 324 308 b 308 398 313 351 308 381 b 332 465 308 419 316 441 b 399 555 349 489 371 519 b 458 643 429 591 448 621 b 474 709 469 665 474 687 b 436 796 474 745 461 774 b 336 828 411 817 377 828 b 260 808 309 828 283 821 b 220 779 248 801 235 791 z m 264 227 b 256 212 259 221 256 216 b 261 199 256 208 258 203 l 302 151 b 316 144 307 146 311 144 b 330 154 319 144 324 148 l 368 196 b 375 211 373 201 375 206 b 369 224 375 215 373 220 l 331 265 b 316 273 326 270 321 273 b 302 266 312 273 307 271 z "}," ":{"ha":345,"x_min":0,"x_max":0,"o":""},"!":{"ha":323,"x_min":0,"x_max":0,"o":"m 94 109 b 140 127 112 109 127 115 b 159 173 153 140 159 155 l 159 928 b 140 973 159 945 153 961 b 94 992 127 986 112 992 b 49 973 77 992 61 986 b 30 928 36 961 30 945 l 30 173 b 49 127 30 155 36 140 b 94 109 61 115 77 109 z m 94 76 b 28 49 68 76 46 67 b 0 -18 9 31 0 8 b 28 -84 0 -43 9 -66 b 94 -111 46 -102 68 -111 b 161 -84 120 -111 142 -102 b 188 -18 179 -66 188 -43 b 161 49 188 8 179 31 b 94 76 142 67 120 76 z "},"\"":{"ha":441,"x_min":0,"x_max":0,"o":"m 64 984 b 18 965 46 984 31 978 b 0 920 6 953 0 937 l 0 741 b 18 696 0 724 6 708 b 64 677 31 683 46 677 b 110 696 82 677 97 683 b 129 741 122 708 129 724 l 129 920 b 110 965 129 937 122 953 b 64 984 97 978 82 984 z m 241 984 b 195 965 222 984 208 978 b 176 920 182 953 176 937 l 176 741 b 195 696 176 724 182 708 b 241 677 208 683 222 677 b 286 696 258 677 273 683 b 305 741 298 708 305 724 l 305 920 b 286 965 305 937 298 953 b 241 984 273 978 258 984 z "},"#":{"ha":1135,"x_min":0,"x_max":0,"o":"m 935 556 b 980 575 952 556 967 562 b 999 621 992 587 999 603 b 980 666 999 638 992 653 b 935 685 967 679 952 685 l 778 685 l 778 919 b 759 965 778 937 771 952 b 713 984 746 977 731 984 b 667 965 695 984 680 977 b 648 919 655 952 648 937 l 648 685 l 336 685 l 336 919 b 317 965 336 937 330 952 b 272 984 305 977 290 984 b 227 965 254 984 239 977 b 208 919 214 952 208 937 l 208 685 l 65 685 b 19 666 47 685 32 679 b 0 621 7 653 0 638 b 19 575 0 603 7 587 b 65 556 32 562 47 556 l 208 556 l 208 437 l 65 437 b 19 418 47 437 32 431 b 0 373 7 406 0 391 b 19 328 0 355 7 340 b 65 309 32 315 47 309 l 208 309 l 208 50 b 227 4 208 32 214 17 b 272 -15 239 -8 254 -15 b 317 4 290 -15 305 -8 b 336 50 330 17 336 32 l 336 309 l 648 309 l 648 50 b 667 4 648 32 655 17 b 713 -15 680 -8 695 -15 b 759 4 731 -15 746 -8 b 778 50 771 17 778 32 l 778 309 l 935 309 b 980 328 952 309 967 315 b 999 373 992 340 999 355 b 980 418 999 391 992 406 b 935 437 967 431 952 437 l 778 437 l 778 556 l 935 556 z m 648 437 l 336 437 l 336 556 l 648 556 l 648 437 z "},"$":{"ha":1109,"x_min":0,"x_max":0,"o":"m 785 984 l 551 984 l 551 1006 b 532 1051 551 1023 545 1038 b 487 1070 520 1063 505 1070 b 441 1051 469 1070 454 1063 b 422 1006 429 1038 422 1023 l 422 984 l 189 984 b 55 928 136 984 92 966 b 0 795 18 892 0 847 l 0 604 b 55 470 0 551 18 507 b 189 414 92 433 136 414 l 422 414 l 422 103 l 213 103 b 153 127 190 103 170 111 b 129 187 137 144 129 164 l 129 246 b 110 292 129 264 123 279 b 64 311 97 304 82 311 b 18 292 46 311 31 304 b 0 246 6 279 0 264 l 0 187 b 62 37 0 128 20 78 b 213 -26 104 -5 155 -26 l 422 -26 l 422 -33 b 441 -79 422 -51 429 -66 b 487 -97 454 -91 469 -97 b 532 -79 505 -97 520 -91 b 551 -33 545 -66 551 -51 l 551 -26 l 761 -26 b 911 37 819 -26 869 -5 b 974 187 954 78 974 128 l 974 330 b 911 481 974 389 954 439 b 761 543 869 522 819 543 l 551 543 l 551 855 l 785 855 b 827 838 802 855 816 849 b 845 795 839 825 845 812 l 845 731 b 864 686 845 713 851 699 b 909 667 877 673 892 667 b 955 686 927 667 943 673 b 974 731 968 699 974 713 l 974 795 b 919 928 974 847 956 892 b 785 984 882 966 837 984 z m 422 543 l 189 543 b 146 561 172 543 158 549 b 129 604 134 573 129 587 l 129 795 b 146 838 129 812 134 825 b 189 855 158 849 172 855 l 422 855 l 422 543 z m 761 414 b 821 390 784 414 804 406 b 845 330 837 373 845 353 l 845 187 b 821 127 845 164 837 144 b 761 103 804 111 784 103 l 551 103 l 551 414 l 761 414 z "},"%":{"ha":1183,"x_min":0,"x_max":0,"o":"m 1004 958 b 958 977 989 970 975 977 b 912 958 941 977 926 970 l 46 92 b 27 45 33 77 27 62 b 46 0 27 29 33 14 b 92 -19 60 -12 75 -19 b 137 0 109 -19 123 -12 l 1004 867 b 1023 912 1016 880 1023 896 b 1004 958 1023 928 1016 944 z m 226 534 b 385 600 288 534 341 555 b 451 759 429 644 451 696 b 385 918 451 821 429 874 b 226 984 341 962 288 984 b 66 918 163 984 111 962 b 0 759 22 874 0 821 b 66 600 0 696 22 644 b 226 534 111 555 163 534 z m 226 855 b 294 827 252 855 275 846 b 322 759 313 808 322 785 b 294 690 322 732 313 709 b 226 663 275 672 252 663 b 157 690 199 663 176 672 b 130 759 139 709 130 732 b 157 827 130 785 139 808 b 226 855 176 846 199 855 z m 823 444 b 663 378 760 444 707 422 b 597 218 619 334 597 280 b 663 59 597 156 619 103 b 823 -7 707 15 760 -7 b 982 59 884 -7 938 15 b 1048 218 1026 103 1048 156 b 982 378 1048 280 1026 334 b 823 444 938 422 884 444 z m 823 121 b 754 150 795 121 773 131 b 726 218 735 169 726 191 b 754 286 726 245 735 267 b 823 315 773 305 795 315 b 890 286 849 315 871 305 b 919 218 909 267 919 245 b 890 150 919 191 909 169 b 823 121 871 131 849 121 z "},"&":{"ha":1019,"x_min":0,"x_max":0,"o":"m 819 793 b 865 812 837 793 852 799 b 884 857 878 824 884 840 b 865 903 884 875 878 890 b 819 922 852 916 837 922 l 522 922 l 522 999 b 503 1044 522 1017 516 1031 b 458 1063 491 1057 475 1063 b 412 1044 440 1063 425 1057 b 393 999 399 1031 393 1017 l 393 920 b 112 777 280 906 186 859 b 0 485 37 695 0 597 b 112 193 0 372 37 274 b 393 50 186 111 280 64 l 393 -29 b 412 -75 393 -47 399 -62 b 458 -94 425 -87 440 -94 b 503 -75 475 -94 491 -87 b 522 -29 516 -62 522 -47 l 522 47 l 819 47 b 865 66 837 47 852 54 b 884 112 878 79 884 94 b 865 158 884 130 878 145 b 819 177 852 170 837 177 l 522 177 l 522 420 l 783 420 b 829 439 802 420 817 427 b 848 485 842 452 848 467 b 829 530 848 503 842 517 b 783 549 817 543 802 549 l 522 549 l 522 793 l 819 793 z m 393 180 b 136 420 257 207 171 287 l 393 420 l 393 180 z m 393 549 l 136 549 b 393 789 171 682 257 762 l 393 549 z "},"'":{"ha":264,"x_min":0,"x_max":0,"o":"m 64 984 b 19 965 47 984 31 978 b 0 920 6 953 0 937 l 0 741 b 19 696 0 724 6 708 b 64 677 31 683 47 677 b 110 696 82 677 97 683 b 129 741 123 708 129 724 l 129 920 b 110 965 129 937 123 953 b 64 984 97 978 82 984 z "},"(":{"ha":698,"x_min":0,"x_max":0,"o":"m 498 28 b 237 162 396 28 309 73 b 129 486 165 252 129 360 b 237 810 129 613 165 721 b 498 945 309 901 396 945 b 543 964 515 945 530 951 b 562 1010 556 977 562 992 b 543 1055 562 1027 556 1042 b 498 1074 530 1068 515 1074 b 146 902 360 1074 243 1017 b 0 486 49 787 0 648 b 146 71 0 324 49 186 b 498 -102 243 -44 360 -102 b 543 -83 515 -102 530 -95 b 562 -37 556 -70 562 -55 b 543 9 562 -19 556 -4 b 498 28 530 21 515 28 z "},")":{"ha":698,"x_min":0,"x_max":0,"o":"m 64 1074 b 19 1055 47 1074 32 1068 b 0 1010 7 1042 0 1027 b 19 964 0 992 7 977 b 64 945 32 951 47 945 b 326 810 166 945 253 901 b 433 486 397 721 433 613 b 326 162 433 360 397 252 b 64 28 253 73 166 28 b 19 9 47 28 32 21 b 0 -37 7 -4 0 -19 b 19 -83 0 -55 7 -70 b 64 -102 32 -95 47 -102 b 416 71 202 -102 319 -44 b 562 486 513 186 562 324 b 416 902 562 648 513 787 b 64 1074 319 1017 202 1074 z "},"*":{"ha":542,"x_min":0,"x_max":0,"o":"m 405 848 b 387 895 405 867 399 882 b 340 913 374 907 359 913 l 267 913 l 267 926 b 248 971 267 943 260 959 b 203 990 235 984 220 990 b 157 971 184 990 170 984 b 138 926 144 959 138 943 l 138 913 l 64 913 b 19 895 47 913 31 907 b 0 848 6 882 0 867 b 19 803 0 831 6 816 b 64 784 31 791 47 784 l 66 784 l 26 741 b 9 694 14 727 9 712 b 31 650 10 677 17 663 b 74 633 43 639 58 633 b 121 654 91 633 107 640 l 138 672 l 138 649 b 157 604 138 631 144 616 b 203 585 170 591 184 585 b 248 604 220 585 235 591 b 267 649 260 616 267 631 l 267 682 l 293 654 b 340 633 307 640 323 633 b 385 650 356 633 371 639 b 405 694 397 663 404 677 b 389 741 406 712 400 727 l 348 785 b 389 806 365 787 378 794 b 405 848 400 818 405 832 z "},"+":{"ha":762,"x_min":0,"x_max":0,"o":"m 562 549 l 378 549 l 378 733 b 359 779 378 751 371 766 b 313 798 346 791 331 798 b 267 779 295 798 280 791 b 249 733 255 766 249 751 l 249 549 l 64 549 b 19 530 47 549 31 543 b 0 485 6 517 0 503 b 19 439 0 467 6 452 b 64 420 31 427 47 420 l 249 420 l 249 236 b 267 191 249 218 255 203 b 313 172 280 178 295 172 b 359 191 331 172 346 178 b 378 236 371 203 378 218 l 378 420 l 562 420 b 608 439 580 420 595 427 b 626 485 620 452 626 467 b 608 530 626 503 620 517 b 562 549 595 543 580 549 z "},",":{"ha":359,"x_min":0,"x_max":0,"o":"m 223 6 b 205 50 223 23 218 38 b 112 102 182 84 151 102 b 33 69 81 102 55 91 b 0 -10 11 47 0 21 b 27 -82 0 -38 9 -62 b 94 -120 45 -102 67 -115 l 94 -136 b 113 -182 94 -154 100 -169 b 159 -201 125 -194 141 -201 b 204 -182 176 -201 192 -194 b 223 -136 217 -169 223 -154 l 223 -13 b 223 -12 223 -13 223 -12 b 223 -10 223 -11 223 -11 b 223 -8 223 -9 223 -9 b 223 -7 223 -8 223 -7 l 223 6 z "},"-":{"ha":762,"x_min":0,"x_max":0,"o":"m 562 549 l 64 549 b 19 530 47 549 32 543 b 0 485 7 517 0 503 b 19 439 0 467 7 452 b 64 420 32 427 47 420 l 562 420 b 608 439 580 420 595 427 b 627 485 620 452 627 467 b 608 530 627 503 620 517 b 562 549 595 543 580 549 z "},".":{"ha":359,"x_min":0,"x_max":0,"o":"m 111 102 b 33 69 81 102 54 91 b 0 -10 11 47 0 21 b 33 -89 0 -41 11 -67 b 111 -121 54 -111 81 -121 b 191 -89 142 -121 169 -111 b 223 -10 212 -67 223 -41 b 191 69 223 21 212 47 b 111 102 169 91 142 102 z "},"/":{"ha":629,"x_min":0,"x_max":0,"o":"m 448 972 b 399 972 431 978 415 978 b 364 937 383 965 372 954 l 9 70 b 9 21 3 53 3 37 b 45 -14 16 5 28 -7 b 69 -19 53 -17 61 -19 b 129 21 94 -19 115 -5 l 484 888 b 484 937 490 905 490 921 b 448 972 477 953 465 964 z "},":":{"ha":357,"x_min":0,"x_max":0,"o":"m 115 564 b 191 600 146 566 172 578 b 221 678 212 621 221 647 b 186 755 219 709 208 735 b 106 784 164 774 138 785 b 30 749 76 783 50 770 b 1 670 10 728 1 701 b 36 593 3 639 14 614 b 115 564 57 574 83 564 z m 111 465 b 33 433 80 465 54 454 b 1 355 12 412 1 385 b 33 277 1 325 12 298 b 111 245 54 256 80 245 b 189 277 141 245 167 256 b 221 355 210 298 221 325 b 189 433 221 385 210 412 b 111 465 167 454 141 465 z "},";":{"ha":357,"x_min":0,"x_max":0,"o":"m 114 564 b 191 600 145 566 171 578 b 220 678 211 621 220 647 b 185 755 218 709 207 735 b 106 784 164 774 138 785 b 30 749 75 783 50 770 b 0 670 9 728 0 701 b 35 593 2 639 14 614 b 114 564 57 574 83 564 z m 220 371 b 203 414 220 388 214 402 b 111 465 180 448 149 465 b 33 433 80 465 54 454 b 0 355 11 412 0 385 b 26 283 0 328 9 304 b 93 246 44 264 66 251 l 93 231 b 112 186 93 213 99 198 b 157 167 124 174 139 167 b 201 186 174 167 189 174 b 220 231 214 198 220 213 l 220 352 b 220 353 220 353 220 353 b 220 355 220 354 220 355 b 220 357 220 355 220 356 b 220 358 220 357 220 357 l 220 371 z "},"<":{"ha":755,"x_min":0,"x_max":0,"o":"m 608 766 b 571 799 600 783 587 793 b 522 795 555 804 538 803 l 35 555 b 0 498 13 543 1 524 b 35 441 1 473 12 454 l 522 195 b 551 188 531 190 541 188 b 607 222 574 188 593 199 b 611 271 615 239 616 255 b 579 308 606 288 595 300 l 205 498 l 578 682 b 611 718 595 690 606 702 b 608 766 616 734 615 750 z "},"=":{"ha":753,"x_min":0,"x_max":0,"o":"m 554 682 l 64 682 b 18 663 46 682 31 676 b 0 618 6 651 0 636 b 18 573 0 601 6 586 b 64 555 31 561 46 555 l 554 555 b 600 573 572 555 587 561 b 618 618 612 586 618 601 b 600 663 618 636 612 651 b 554 682 587 676 572 682 z m 554 451 l 64 451 b 18 433 46 451 31 445 b 0 387 6 420 0 405 b 18 342 0 370 6 355 b 64 324 31 330 46 324 l 554 324 b 600 342 572 324 587 330 b 618 387 612 355 618 370 b 600 433 618 405 612 420 b 554 451 587 445 572 451 z "},">":{"ha":755,"x_min":0,"x_max":0,"o":"m 584 555 l 96 795 b 48 799 80 803 64 804 b 12 766 32 793 20 783 b 8 718 4 750 3 734 b 40 682 14 702 24 690 l 413 498 l 40 308 b 8 271 24 300 14 288 b 12 222 3 255 4 239 b 68 188 26 199 45 188 b 97 195 78 188 87 190 l 585 441 b 619 498 607 454 618 473 b 584 555 618 524 606 543 z "},"?":{"ha":821,"x_min":0,"x_max":0,"o":"m 342 985 b 100 885 248 985 168 952 b 0 643 33 818 0 737 b 18 597 0 625 6 610 b 64 579 31 585 46 579 b 109 597 81 579 96 585 b 127 643 121 610 127 625 b 191 795 127 702 149 753 b 342 858 233 837 283 858 b 495 795 402 858 453 837 b 558 643 537 753 558 702 b 495 490 558 583 537 532 b 342 427 453 448 402 427 b 298 408 325 427 310 421 b 279 363 286 396 279 381 l 279 201 b 298 156 279 183 286 168 b 342 137 310 143 325 137 b 388 156 360 137 375 143 b 406 201 400 168 406 183 l 406 306 b 607 424 488 323 554 362 b 686 643 659 486 686 559 b 585 885 686 737 652 818 b 342 985 518 952 437 985 z m 342 111 b 264 78 312 111 286 100 b 232 0 243 56 232 31 b 264 -77 232 -30 243 -56 b 342 -110 286 -99 312 -110 b 420 -77 372 -110 399 -99 b 452 0 441 -56 452 -30 b 420 78 452 31 441 56 b 342 111 399 100 372 111 z "},"@":{"ha":1135,"x_min":0,"x_max":0,"o":"m 500 997 b 146 850 362 997 244 948 b 0 497 49 753 0 635 b 146 144 0 359 49 242 b 500 -2 244 47 362 -2 b 545 17 517 -2 532 4 b 563 62 557 29 563 44 b 545 107 563 79 557 94 b 500 125 532 119 517 125 b 237 235 397 125 309 162 b 127 497 164 307 127 395 b 237 760 127 600 164 688 b 500 869 309 833 397 869 b 762 760 602 869 690 833 b 871 497 835 688 871 600 b 784 258 871 408 842 328 l 784 477 b 783 481 784 478 784 480 b 783 484 783 482 783 483 b 783 488 783 485 783 487 b 784 497 784 491 784 494 b 701 699 784 576 756 643 b 500 782 645 754 578 782 b 298 699 421 782 354 754 b 215 497 243 643 215 576 b 298 296 215 419 243 352 b 500 213 354 241 421 213 b 656 260 557 213 610 229 l 656 130 b 673 86 656 113 663 98 b 716 66 685 75 699 68 b 764 75 733 62 749 65 b 999 497 921 184 999 325 b 852 850 999 635 950 753 b 500 997 755 948 637 997 z m 500 340 b 389 387 456 340 419 355 b 342 497 357 417 342 454 b 389 608 342 541 357 578 b 500 654 419 640 456 654 b 610 608 543 654 580 640 b 656 497 642 578 656 541 b 610 387 656 454 642 417 b 500 340 580 355 543 340 z "},"A":{"ha":1130,"x_min":0,"x_max":0,"o":"m 543 941 b 485 977 530 964 511 976 b 429 941 459 975 441 963 l 11 83 b 8 35 3 66 3 51 b 41 -2 14 18 24 6 b 68 -8 50 -6 59 -8 b 125 27 92 -8 111 3 l 487 770 l 869 26 b 906 -5 878 10 890 0 b 955 -1 922 -10 939 -9 b 986 36 970 7 981 20 b 982 84 991 52 990 68 l 543 941 z "},"B":{"ha":1142,"x_min":0,"x_max":0,"o":"m 768 991 l 64 991 b 18 973 46 991 31 985 b 0 928 6 961 0 946 l 0 65 b 18 20 0 47 6 33 b 64 1 31 8 46 1 l 811 1 b 949 59 865 1 911 21 b 1006 197 987 97 1006 143 l 1006 448 b 943 592 1006 505 985 553 b 1006 753 985 637 1006 691 b 937 922 1006 819 983 876 b 768 991 890 968 834 991 z m 879 197 b 859 149 879 178 873 162 b 811 129 846 136 830 129 l 127 129 l 127 515 l 811 515 b 859 496 830 515 846 509 b 879 448 873 483 879 467 l 879 197 z m 768 643 l 127 643 l 127 865 l 768 865 b 847 832 799 865 825 854 b 879 753 868 810 879 784 b 847 675 879 723 868 697 b 768 643 825 654 799 643 z "},"C":{"ha":1130,"x_min":0,"x_max":0,"o":"m 343 853 l 930 853 b 976 872 948 853 963 859 b 994 917 988 884 994 899 b 976 962 994 935 988 949 b 930 981 963 975 948 981 l 343 981 b 100 880 248 981 168 947 b 0 638 34 813 0 732 l 0 340 b 100 98 0 245 34 165 b 343 -3 168 31 248 -3 l 930 -3 b 976 16 948 -3 963 4 b 994 61 988 28 994 43 b 976 106 994 79 988 94 b 930 125 963 119 948 125 l 343 125 b 191 188 283 125 233 146 b 127 340 149 230 127 281 l 127 638 b 191 790 127 697 149 748 b 343 853 233 832 283 853 z "},"D":{"ha":1119,"x_min":0,"x_max":0,"o":"m 566 978 l 64 978 b 19 959 46 978 31 972 b 0 914 7 947 0 932 l 0 58 b 19 14 0 41 7 26 b 64 -5 31 1 46 -5 l 566 -5 b 861 117 680 -5 779 36 b 983 413 943 199 983 298 l 983 559 b 861 855 983 675 943 774 b 566 978 779 937 680 978 z m 856 413 b 770 208 856 333 827 264 b 566 122 714 151 646 122 l 127 122 l 127 850 l 566 850 b 770 765 646 850 714 822 b 856 559 827 709 856 640 l 856 413 z "},"E":{"ha":1130,"x_min":0,"x_max":0,"o":"m 930 853 b 975 872 948 853 963 859 b 994 917 988 884 994 899 b 975 962 994 935 988 949 b 930 981 963 975 948 981 l 64 981 b 19 962 46 981 31 975 b 0 917 6 949 0 935 l 0 61 b 19 16 0 43 6 28 b 64 -3 31 4 46 -3 l 930 -3 b 975 16 948 -3 963 4 b 994 61 988 28 994 43 b 975 106 994 79 988 94 b 930 125 963 119 948 125 l 127 125 l 127 425 l 609 425 b 654 444 627 425 642 432 b 673 489 667 456 673 471 b 654 534 673 507 667 522 b 609 553 642 547 627 553 l 127 553 l 127 853 l 930 853 z "},"F":{"ha":1130,"x_min":0,"x_max":0,"o":"m 930 981 l 64 981 b 19 962 46 981 31 975 b 0 917 6 949 0 935 l 0 61 b 19 16 0 43 6 28 b 64 -3 31 4 46 -3 b 109 16 81 -3 96 4 b 127 61 121 28 127 43 l 127 425 l 609 425 b 654 444 627 425 642 432 b 673 489 667 456 673 471 b 654 534 673 507 667 522 b 609 553 642 547 627 553 l 127 553 l 127 853 l 930 853 b 975 872 948 853 963 859 b 994 917 988 884 994 899 b 975 962 994 935 988 949 b 930 981 963 975 948 981 z "},"G":{"ha":1130,"x_min":0,"x_max":0,"o":"m 342 853 l 930 853 b 975 872 948 853 963 859 b 994 917 988 884 994 899 b 975 962 994 935 988 949 b 930 981 963 975 948 981 l 342 981 b 100 880 248 981 168 947 b 0 638 33 813 0 732 l 0 340 b 100 98 0 245 33 165 b 342 -3 168 31 248 -3 l 930 -3 b 975 16 948 -3 963 4 b 994 61 988 28 994 43 l 994 489 b 975 534 994 507 988 522 b 930 553 963 547 948 553 l 497 553 b 452 534 479 553 465 547 b 433 489 439 522 433 507 b 452 444 433 471 439 456 b 497 425 465 432 479 425 l 867 425 l 867 125 l 342 125 b 191 188 283 125 233 146 b 127 340 149 230 127 281 l 127 638 b 191 790 127 697 149 748 b 342 853 233 832 283 853 z "},"H":{"ha":1118,"x_min":0,"x_max":0,"o":"m 920 975 b 874 957 902 975 886 969 b 856 911 862 945 856 929 l 856 548 l 127 548 l 127 911 b 109 957 127 929 121 945 b 64 975 96 969 81 975 b 18 957 46 975 31 969 b 0 911 6 945 0 929 l 0 56 b 18 11 0 39 6 24 b 64 -7 31 -1 46 -7 b 109 11 81 -7 96 -1 b 127 56 121 24 127 39 l 127 420 l 856 420 l 856 56 b 874 11 856 39 862 24 b 920 -7 886 -1 902 -7 b 964 11 937 -7 952 -1 b 983 56 977 24 983 39 l 983 911 b 964 957 983 929 977 945 b 920 975 952 969 937 975 z "},"I":{"ha":262,"x_min":0,"x_max":0,"o":"m 64 975 b 18 957 46 975 31 969 b 0 911 6 945 0 929 l 0 56 b 18 11 0 39 6 24 b 64 -7 31 -1 46 -7 b 109 11 81 -7 96 -1 b 127 56 121 24 127 39 l 127 911 b 109 957 127 929 121 945 b 64 975 96 969 81 975 z "},"J":{"ha":1118,"x_min":0,"x_max":0,"o":"m 919 975 l 491 975 b 446 957 473 975 458 969 b 428 911 434 945 428 929 b 446 867 428 895 434 879 b 491 848 458 854 473 848 l 855 848 l 855 327 b 795 180 855 270 836 221 b 648 120 754 140 705 120 l 334 120 b 188 180 277 120 228 140 b 127 326 147 221 127 269 l 127 484 b 109 529 127 502 121 517 b 64 548 96 541 81 548 b 18 529 46 548 31 541 b 0 484 6 517 0 502 l 0 326 b 98 90 0 235 33 156 b 334 -7 163 25 241 -7 l 648 -7 b 885 91 741 -7 819 25 b 983 327 950 156 983 235 l 983 911 b 964 957 983 929 977 945 b 919 975 951 969 937 975 z "},"K":{"ha":1118,"x_min":0,"x_max":0,"o":"m 983 912 b 964 957 983 930 977 945 b 920 976 952 969 937 976 b 874 957 902 976 886 969 b 856 912 862 945 856 930 b 749 654 856 812 820 726 b 492 548 677 583 592 548 l 127 548 l 127 912 b 109 957 127 930 121 945 b 64 976 96 969 81 976 b 18 957 46 976 31 969 b 0 912 6 945 0 930 l 0 56 b 18 12 0 39 6 24 b 64 -7 31 -1 46 -7 b 109 12 81 -7 96 -1 b 127 56 121 24 127 39 l 127 420 l 492 420 b 749 314 592 420 677 385 b 856 56 820 243 856 157 b 874 12 856 39 862 24 b 920 -7 886 -1 902 -7 b 964 12 937 -7 952 -1 b 983 56 977 24 983 39 b 733 484 983 239 900 382 b 983 912 900 586 983 728 z "},"L":{"ha":1119,"x_min":0,"x_max":0,"o":"m 920 120 l 127 120 l 127 911 b 109 957 127 929 121 945 b 64 975 96 969 81 975 b 19 957 46 975 31 969 b 0 911 7 945 0 929 l 0 56 b 19 11 0 39 7 24 b 64 -7 31 -1 46 -7 l 920 -7 b 964 11 937 -7 952 -1 b 983 56 977 24 983 39 b 964 101 983 74 977 89 b 920 120 952 113 937 120 z "},"M":{"ha":1119,"x_min":0,"x_max":0,"o":"m 949 968 b 882 964 926 979 903 977 l 492 682 l 101 964 b 35 968 80 977 58 979 b 0 911 12 955 0 936 l 0 56 b 19 11 0 39 6 24 b 64 -7 31 -1 46 -7 b 109 11 81 -7 96 -1 b 127 56 121 24 127 39 l 127 787 l 454 551 b 456 551 455 551 455 551 b 456 551 456 551 456 551 b 463 547 458 549 460 548 b 468 545 464 546 466 545 b 473 543 470 544 471 543 b 479 541 475 542 477 541 b 485 540 481 541 484 541 b 486 540 486 540 486 540 b 486 540 486 540 486 540 b 492 540 488 540 490 540 b 498 540 494 540 496 540 b 498 540 498 540 498 540 b 498 540 498 540 498 540 b 504 541 500 541 502 541 b 510 543 506 541 508 542 b 510 543 510 543 510 543 b 515 545 512 543 514 544 b 521 547 517 545 519 546 b 527 551 523 548 525 549 b 528 551 527 551 528 551 b 529 551 528 551 528 551 l 856 787 l 856 56 b 874 11 856 39 862 24 b 920 -7 887 -1 902 -7 b 964 11 937 -7 952 -1 b 983 56 977 24 983 39 l 983 911 b 949 968 983 936 972 955 z "},"N":{"ha":1119,"x_min":0,"x_max":0,"o":"m 920 978 b 874 959 902 978 887 972 b 856 914 862 947 856 932 l 856 212 l 109 959 b 39 973 88 978 65 983 b 0 914 13 960 0 940 l 0 58 b 19 14 0 41 6 26 b 64 -5 31 1 46 -5 b 109 14 81 -5 96 1 b 127 58 121 26 127 41 l 127 760 l 874 14 b 920 -5 888 1 903 -5 b 944 0 928 -5 936 -3 b 983 58 970 13 983 33 l 983 914 b 964 959 983 932 977 947 b 920 978 952 972 937 978 z "},"O":{"ha":1158,"x_min":0,"x_max":0,"o":"m 509 1014 b 147 864 368 1014 248 964 b -3 503 47 764 -3 644 b 147 141 -3 361 47 241 b 509 -9 248 41 368 -9 b 870 141 650 -9 770 41 b 1021 503 970 241 1021 361 b 870 864 1021 644 970 764 b 509 1014 770 964 650 1014 z m 509 123 b 241 235 404 123 315 161 b 130 503 167 309 130 398 b 241 770 130 607 167 696 b 509 882 315 844 404 882 b 777 770 613 882 703 844 b 888 503 850 696 888 607 b 777 235 888 398 850 309 b 509 123 703 161 613 123 z "},"P":{"ha":1118,"x_min":0,"x_max":0,"o":"m 722 975 l 64 975 b 18 957 46 975 31 969 b 0 911 6 945 0 929 l 0 56 b 18 11 0 39 6 24 b 64 -7 31 -1 46 -7 b 109 11 81 -7 96 -1 b 127 56 121 24 127 39 l 127 420 l 736 420 b 911 493 804 420 862 444 b 983 667 959 541 983 600 l 983 715 b 907 899 983 787 958 848 b 722 975 856 950 794 975 z m 856 667 b 821 583 856 634 844 606 b 736 548 797 559 769 548 l 127 548 l 127 848 l 722 848 b 817 809 759 848 791 835 b 856 715 842 783 856 751 l 856 667 z "},"Q":{"ha":1174,"x_min":0,"x_max":0,"o":"m 559 1022 b 157 867 397 1027 262 976 b 15 456 51 758 4 621 b 159 151 29 336 77 234 b 462 1 241 67 342 18 b 678 20 538 -8 610 -2 b 691 33 685 22 690 26 b 686 51 693 39 691 45 l 614 127 b 589 135 607 134 599 136 b 526 130 568 132 547 130 b 245 253 414 130 320 171 b 148 553 171 336 138 435 b 257 779 159 642 196 718 b 482 888 318 840 393 876 b 783 790 600 897 701 865 b 906 510 865 715 906 622 b 851 313 906 438 888 372 b 848 296 848 308 847 302 b 854 281 848 291 850 286 l 913 220 b 933 213 919 215 926 212 b 951 224 941 214 947 217 b 1038 538 1014 315 1042 419 b 890 870 1029 669 979 781 b 559 1022 802 960 692 1011 z m 671 367 b 624 387 657 380 642 387 b 577 369 606 388 591 381 b 556 322 564 355 557 340 b 574 275 556 304 562 289 l 827 10 b 876 -10 842 -3 858 -10 b 922 8 892 -10 907 -4 b 942 55 935 22 942 37 b 924 102 943 73 937 89 l 671 367 z "},"R":{"ha":1126,"x_min":0,"x_max":0,"o":"m 804 443 b 968 673 913 490 968 567 l 968 720 b 892 901 968 791 943 851 b 711 977 842 951 781 977 l 63 977 b 18 958 46 977 31 970 b 0 913 6 945 0 930 l 0 60 b 18 15 0 43 6 28 b 63 -3 31 3 46 -3 b 109 15 81 -3 96 3 b 127 60 121 28 127 43 l 127 420 l 503 420 b 758 315 603 420 688 385 b 863 60 828 244 863 159 b 882 15 863 43 869 28 b 927 -3 895 3 909 -3 b 972 15 945 -3 960 3 b 991 60 985 28 991 43 b 804 443 991 216 928 343 z m 724 556 l 127 556 l 127 849 l 711 849 b 802 811 746 849 777 837 b 840 720 827 786 840 755 l 840 673 b 806 591 840 641 829 613 b 724 556 783 568 755 556 z "},"S":{"ha":1098,"x_min":0,"x_max":0,"o":"m 775 994 l 186 994 b 54 939 135 994 91 975 b 0 806 18 902 0 858 l 0 617 b 54 486 0 566 18 522 b 186 431 91 449 135 431 l 751 431 b 810 406 774 431 794 422 b 835 347 827 390 835 370 l 835 206 b 810 147 835 183 827 163 b 751 123 794 131 774 123 l 211 123 b 152 147 188 123 168 131 b 127 206 136 163 127 183 l 127 264 b 109 310 127 282 121 297 b 64 328 96 322 81 328 b 18 310 46 328 31 322 b 0 264 6 297 0 282 l 0 206 b 62 58 0 149 20 98 b 211 -5 103 16 153 -5 l 751 -5 b 901 58 810 -5 859 16 b 962 206 941 98 962 149 l 962 347 b 901 496 962 406 941 455 b 751 558 859 538 810 558 l 186 558 b 144 576 170 558 156 564 b 127 617 133 587 127 601 l 127 806 b 144 848 127 823 133 837 b 186 866 156 860 170 866 l 775 866 b 817 848 792 866 806 860 b 835 806 829 837 835 823 l 835 743 b 853 699 835 726 841 711 b 899 680 866 686 881 680 b 943 699 916 680 931 686 b 962 743 956 711 962 726 l 962 806 b 907 939 962 858 944 902 b 775 994 871 975 827 994 z "},"T":{"ha":1119,"x_min":0,"x_max":0,"o":"m 920 975 l 64 975 b 19 956 46 975 31 968 b 0 911 7 944 0 929 b 19 866 0 894 7 878 b 64 848 31 854 46 848 l 428 848 l 428 52 b 447 7 428 35 434 20 b 492 -12 459 -5 474 -12 b 537 7 509 -12 524 -5 b 555 52 549 20 555 35 l 555 848 l 920 848 b 964 866 937 848 952 854 b 983 911 977 878 983 894 b 964 956 983 929 977 944 b 920 975 952 968 937 975 z "},"U":{"ha":1119,"x_min":0,"x_max":0,"o":"m 920 984 b 874 966 902 984 887 978 b 856 920 862 953 856 938 l 856 356 b 789 195 856 293 833 239 b 629 129 745 151 691 129 l 355 129 b 194 195 292 129 239 151 b 127 356 150 239 127 293 l 127 920 b 109 966 127 938 121 953 b 64 984 96 978 81 984 b 19 966 46 984 31 978 b 0 920 6 953 0 938 l 0 356 b 104 105 0 258 35 174 b 355 1 174 36 257 1 l 629 1 b 879 105 726 1 810 36 b 983 356 949 174 983 258 l 983 920 b 964 966 983 938 977 953 b 920 984 952 978 937 984 z "},"V":{"ha":1130,"x_min":0,"x_max":0,"o":"m 955 972 b 906 975 939 979 922 981 b 869 944 890 970 878 960 l 487 200 l 125 943 b 89 975 117 959 105 970 b 41 972 73 981 57 979 b 8 936 24 964 14 951 b 11 887 3 920 3 903 l 429 30 b 485 -6 441 7 459 -5 b 486 -6 486 -6 486 -6 b 543 28 509 -6 528 5 l 982 886 b 986 935 990 902 991 918 b 955 972 981 951 970 963 z "},"W":{"ha":1622,"x_min":0,"x_max":0,"o":"m 1447 972 b 1398 975 1430 979 1415 981 b 1361 944 1382 970 1370 960 l 979 200 l 810 549 l 982 886 b 986 935 990 902 991 918 b 954 972 981 951 970 963 b 906 975 939 979 922 981 b 869 944 890 970 878 960 l 740 692 l 618 943 b 581 975 610 959 597 970 b 532 972 566 981 549 979 b 500 936 517 964 506 951 b 503 887 495 920 496 903 l 667 551 l 487 200 l 125 943 b 89 975 117 959 105 970 b 40 972 73 981 57 979 b 8 936 24 964 14 951 b 11 887 3 920 3 903 l 429 30 b 485 -6 440 7 459 -5 b 486 -6 485 -6 486 -6 b 543 28 509 -6 528 5 l 736 408 l 921 30 b 977 -6 932 7 951 -5 b 978 -6 977 -6 978 -6 b 1035 28 1002 -6 1021 5 l 1474 886 b 1478 935 1482 902 1484 918 b 1447 972 1473 951 1463 963 z "},"X":{"ha":1118,"x_min":0,"x_max":0,"o":"m 964 955 b 919 973 951 967 935 973 b 874 955 903 973 888 967 l 492 572 l 109 955 b 64 973 95 967 80 973 b 18 955 47 973 32 967 b 0 909 6 941 0 926 b 18 865 0 893 6 878 l 401 481 l 18 99 b 0 54 6 85 0 71 b 18 9 0 38 6 22 b 64 -9 32 -3 47 -9 b 109 9 80 -9 95 -3 l 492 392 l 874 9 b 919 -9 888 -3 903 -9 b 964 9 935 -9 951 -3 b 983 54 977 22 983 38 b 964 99 983 71 977 85 l 581 481 l 964 865 b 983 909 977 878 983 893 b 964 955 983 926 977 941 z "},"Y":{"ha":1136,"x_min":0,"x_max":0,"o":"m 892 973 l 500 582 l 109 973 b 64 992 95 986 80 992 b 18 973 47 992 33 986 b 0 928 6 960 0 945 b 18 884 0 912 6 897 l 437 465 l 437 52 b 455 7 437 35 443 20 b 500 -11 467 -5 483 -11 b 545 7 517 -11 533 -5 b 564 52 557 20 564 35 l 564 465 l 982 884 b 1000 928 994 897 1000 912 b 982 973 1000 945 994 960 b 937 992 968 986 953 992 b 892 973 920 992 905 986 z "},"Z":{"ha":1116,"x_min":0,"x_max":0,"o":"m 908 121 l 222 121 l 954 883 b 966 952 972 903 976 926 b 908 991 953 978 933 991 l 73 991 b 28 972 56 991 40 985 b 9 927 16 960 9 945 b 28 882 9 909 16 895 b 73 863 40 869 56 863 l 758 863 l 27 101 b 14 32 9 80 5 58 b 73 -7 28 6 47 -7 l 908 -7 b 953 12 926 -7 941 -1 b 972 57 965 24 972 39 b 953 102 972 75 965 90 b 908 121 941 114 926 121 z "},"[":{"ha":472,"x_min":0,"x_max":0,"o":"m 272 13 l 129 13 l 129 994 l 269 994 b 315 1013 288 994 302 1000 b 334 1058 328 1025 334 1040 b 315 1104 334 1076 328 1091 b 269 1122 302 1116 288 1122 l 64 1122 b 18 1104 46 1122 31 1116 b 0 1058 6 1091 0 1076 l 0 -52 b 18 -97 0 -69 6 -85 b 64 -116 31 -110 46 -116 l 272 -116 b 317 -97 290 -116 305 -110 b 336 -52 330 -85 336 -69 b 317 -5 336 -34 330 -18 b 272 13 305 7 290 13 z "},"\\":{"ha":631,"x_min":0,"x_max":0,"o":"m 130 956 b 95 991 122 972 111 985 b 45 991 79 998 62 998 b 10 956 28 984 17 972 b 10 907 3 941 3 924 l 366 39 b 425 -1 380 12 400 -1 b 450 3 433 -1 441 0 b 485 38 467 11 478 22 b 485 87 492 54 492 71 l 130 956 z "},"]":{"ha":472,"x_min":0,"x_max":0,"o":"m 272 1122 l 66 1122 b 21 1104 49 1122 34 1116 b 2 1058 8 1091 2 1076 b 21 1013 2 1040 8 1025 b 66 994 34 1000 49 994 l 208 994 l 208 13 l 64 13 b 18 -5 47 13 31 7 b 0 -52 6 -18 0 -34 b 18 -97 0 -69 6 -85 b 64 -116 31 -110 47 -116 l 272 -116 b 317 -97 290 -116 305 -110 b 336 -52 330 -85 336 -69 l 336 1058 b 317 1104 336 1076 330 1091 b 272 1122 305 1116 290 1122 z "},"^":{"ha":427,"x_min":0,"x_max":0,"o":"m 209 962 b 151 1002 197 987 178 1000 b 90 964 123 1001 102 988 l 10 785 b 9 736 3 768 3 752 b 43 700 15 720 26 708 b 92 699 60 693 76 692 b 128 732 109 705 120 716 l 146 772 l 162 734 b 222 694 176 707 197 694 b 246 699 230 694 238 696 b 281 734 263 706 275 718 b 281 783 288 749 288 766 l 209 962 z "},"_":{"ha":935,"x_min":0,"x_max":0,"o":"m 734 67 l 65 67 b 19 48 47 67 32 61 b 0 3 7 35 0 20 b 19 -43 0 -16 7 -31 b 65 -62 32 -56 47 -62 l 734 -62 b 781 -43 752 -62 768 -56 b 799 3 793 -31 799 -16 b 781 48 799 20 793 35 b 734 67 768 61 752 67 z "},"`":{"ha":347,"x_min":0,"x_max":0,"o":"m 202 783 l 129 962 b 94 996 122 978 110 990 b 45 997 79 1003 62 1003 b 9 962 28 989 16 978 b 9 913 3 946 3 930 l 82 734 b 142 694 96 707 117 694 b 166 699 150 694 158 696 b 201 734 183 706 195 718 b 202 783 208 749 208 766 z "},"a":{"ha":998,"x_min":0,"x_max":0,"o":"m 477 818 b 421 852 465 840 446 851 b 365 817 395 851 377 839 l 12 90 b 8 42 4 74 3 58 b 40 6 14 26 24 14 b 68 0 50 2 58 0 b 124 35 91 0 110 12 l 423 649 l 739 34 b 775 3 747 18 759 8 b 823 7 791 -2 807 -1 b 854 43 838 16 849 28 b 850 92 859 60 858 75 l 477 818 z "},"b":{"ha":1006,"x_min":0,"x_max":0,"o":"m 662 854 l 63 854 b 18 836 45 854 31 848 b 0 791 6 823 0 808 l 0 60 b 18 16 0 43 6 28 b 63 -3 31 3 45 -3 l 678 -3 b 814 54 731 -3 777 16 b 871 189 852 91 871 136 l 871 366 b 815 500 871 418 852 463 b 871 642 852 540 871 587 l 871 645 b 810 793 871 703 850 751 b 662 854 768 833 720 854 z m 745 189 b 726 142 745 171 739 155 b 678 123 713 129 696 123 l 125 123 l 125 433 l 678 433 b 726 413 696 433 713 426 b 745 366 739 400 745 384 l 745 189 z m 745 642 b 721 583 745 618 737 599 b 662 558 705 566 685 558 l 125 558 l 125 728 l 662 728 b 721 704 685 728 705 720 b 745 645 737 688 745 668 l 745 642 z "},"c":{"ha":996,"x_min":0,"x_max":0,"o":"m 300 730 l 798 730 b 842 749 815 730 829 736 b 861 793 854 761 861 776 b 842 838 861 810 854 825 b 798 856 829 850 815 856 l 300 856 b 88 768 217 856 146 827 b 0 557 30 709 0 639 l 0 304 b 88 93 0 222 30 151 b 300 5 146 35 217 5 l 798 5 b 842 24 815 5 829 12 b 861 68 854 36 861 50 b 842 112 861 85 854 100 b 798 131 829 125 815 131 l 300 131 b 177 182 252 131 211 148 b 126 304 143 216 126 256 l 126 557 b 177 680 126 604 143 646 b 300 730 211 713 252 730 z "},"d":{"ha":987,"x_min":0,"x_max":0,"o":"m 439 853 l 63 853 b 18 835 45 853 31 847 b 0 791 6 823 0 808 l 0 66 b 18 21 0 48 6 33 b 63 3 31 9 45 3 l 439 3 b 730 123 553 3 650 43 b 851 414 810 204 851 301 l 851 441 b 730 732 851 555 810 652 b 439 853 650 813 553 853 z m 726 414 b 642 212 726 336 697 269 b 439 128 585 156 518 128 l 125 128 l 125 728 l 439 728 b 642 644 518 728 585 700 b 726 441 697 588 726 520 l 726 414 z "},"e":{"ha":996,"x_min":0,"x_max":0,"o":"m 798 730 b 842 749 815 730 829 736 b 861 793 854 761 861 776 b 842 838 861 810 854 825 b 798 856 829 850 815 856 l 63 856 b 19 838 45 856 31 850 b 0 793 6 825 0 810 l 0 68 b 19 24 0 50 6 36 b 63 5 31 12 45 5 l 798 5 b 842 24 815 5 829 12 b 861 68 854 36 861 50 b 842 112 861 85 854 100 b 798 131 829 125 815 131 l 126 131 l 126 368 l 525 368 b 570 386 543 368 557 374 b 588 431 582 398 588 413 b 570 475 588 448 582 463 b 525 493 557 487 543 493 l 126 493 l 126 730 l 798 730 z "},"f":{"ha":996,"x_min":0,"x_max":0,"o":"m 798 856 l 63 856 b 19 838 45 856 31 850 b 0 793 7 825 0 810 l 0 68 b 19 24 0 50 7 36 b 63 5 31 12 45 5 b 107 24 81 5 95 12 b 126 68 120 36 126 50 l 126 368 l 525 368 b 570 386 543 368 557 374 b 588 431 582 398 588 413 b 570 475 588 448 582 463 b 525 493 557 487 543 493 l 126 493 l 126 730 l 798 730 b 842 749 815 730 829 736 b 861 793 854 761 861 776 b 842 838 861 810 854 825 b 798 856 829 850 815 856 z "},"g":{"ha":996,"x_min":0,"x_max":0,"o":"m 299 730 l 797 730 b 842 749 814 730 829 736 b 860 793 854 761 860 776 b 842 838 860 810 854 825 b 797 856 829 850 814 856 l 299 856 b 87 768 216 856 146 827 b 0 557 29 709 0 639 l 0 304 b 87 93 0 222 29 151 b 299 5 146 35 216 5 l 797 5 b 842 24 814 5 829 12 b 860 68 854 36 860 50 l 860 431 b 842 475 860 448 854 463 b 797 493 829 487 814 493 l 430 493 b 385 475 412 493 397 487 b 367 431 373 463 367 448 b 385 386 367 413 373 398 b 430 368 397 374 412 368 l 734 368 l 734 131 l 299 131 b 176 182 251 131 210 148 b 125 304 142 216 125 256 l 125 557 b 176 680 125 604 142 646 b 299 730 210 713 251 730 z "},"h":{"ha":1000,"x_min":0,"x_max":0,"o":"m 800 857 b 755 839 783 857 768 851 b 736 793 743 826 736 811 l 736 490 l 127 490 l 127 793 b 109 839 127 811 121 826 b 64 857 97 851 81 857 b 19 839 46 857 31 851 b 0 793 7 826 0 811 l 0 58 b 19 13 0 40 7 25 b 64 -6 31 0 46 -6 b 109 13 81 -6 97 0 b 127 58 121 25 127 40 l 127 362 l 736 362 l 736 58 b 755 13 736 40 743 25 b 800 -6 768 0 783 -6 b 845 13 818 -6 833 0 b 864 58 858 25 864 40 l 864 793 b 845 839 864 811 858 826 b 800 857 833 851 818 857 z "},"i":{"ha":261,"x_min":0,"x_max":0,"o":"m 63 851 b 18 833 45 851 31 845 b 0 789 6 821 0 806 l 0 64 b 18 19 0 46 6 31 b 63 1 31 7 45 1 b 107 19 80 1 95 7 b 125 64 119 31 125 46 l 125 789 b 107 833 125 806 119 821 b 63 851 95 845 80 851 z "},"j":{"ha":986,"x_min":0,"x_max":0,"o":"m 787 851 l 425 851 b 380 833 408 851 393 845 b 362 789 368 821 362 806 b 380 744 362 771 368 756 b 425 726 393 732 408 726 l 725 726 l 725 293 b 676 175 725 247 709 208 b 558 126 644 142 604 126 l 292 126 b 174 175 245 126 207 142 b 125 292 142 208 125 247 l 125 426 b 107 471 125 444 119 458 b 62 489 94 483 80 489 b 18 471 45 489 31 483 b 0 426 6 458 0 444 l 0 292 b 85 86 0 212 28 143 b 292 1 142 29 211 1 l 558 1 b 764 86 639 1 707 29 b 850 293 822 144 850 212 l 850 789 b 832 833 850 806 844 821 b 787 851 820 845 805 851 z "},"k":{"ha":986,"x_min":0,"x_max":0,"o":"m 850 789 b 832 833 850 806 844 821 b 788 852 820 846 805 852 b 743 833 770 852 755 846 b 725 789 731 821 725 806 b 637 577 725 706 696 635 b 425 489 578 518 508 489 l 125 489 l 125 789 b 107 833 125 806 119 821 b 63 852 95 846 80 852 b 18 833 45 852 31 846 b 0 789 6 821 0 806 l 0 64 b 18 19 0 46 6 31 b 63 1 31 7 45 1 b 107 19 80 1 95 7 b 125 64 119 31 125 46 l 125 363 l 425 363 b 637 275 508 363 578 334 b 725 64 696 217 725 146 b 743 19 725 46 731 31 b 788 1 755 7 770 1 b 832 19 805 1 820 7 b 850 64 844 31 850 46 b 648 426 850 217 783 338 b 850 789 783 515 850 635 z "},"l":{"ha":986,"x_min":0,"x_max":0,"o":"m 787 126 l 125 126 l 125 789 b 107 833 125 806 119 821 b 62 851 95 845 80 851 b 18 833 45 851 31 845 b 0 789 6 821 0 806 l 0 64 b 18 19 0 46 6 31 b 62 1 31 7 45 1 l 787 1 b 832 19 805 1 820 7 b 850 64 844 31 850 46 b 832 108 850 81 844 96 b 787 126 820 120 805 126 z "},"m":{"ha":986,"x_min":0,"x_max":0,"o":"m 817 844 b 751 840 793 855 772 853 l 425 604 l 99 840 b 34 844 79 853 57 855 b 0 789 11 831 0 812 l 0 64 b 18 19 0 46 6 31 b 62 1 31 7 45 1 b 107 19 80 1 95 7 b 125 64 119 31 125 46 l 125 666 l 389 476 b 389 475 389 476 389 475 b 391 475 390 475 390 475 b 396 471 392 474 394 473 b 401 469 398 471 399 470 b 407 467 404 469 406 468 b 413 466 409 467 411 466 b 418 465 415 465 417 465 b 419 465 418 465 419 465 b 419 465 419 465 419 465 b 425 465 421 465 423 465 b 431 465 427 465 429 465 b 431 465 431 465 431 465 b 437 466 433 465 435 465 b 443 467 439 466 441 467 b 443 467 443 467 443 467 b 449 469 445 468 447 469 b 454 471 450 470 452 471 b 454 471 454 471 454 471 b 460 475 456 473 458 474 b 460 475 460 475 460 475 b 462 476 461 475 461 476 l 725 666 l 725 64 b 743 19 725 46 731 31 b 787 1 755 7 770 1 b 832 19 805 1 820 7 b 850 64 844 31 850 46 l 850 789 b 817 844 850 812 839 831 z "},"n":{"ha":986,"x_min":0,"x_max":0,"o":"m 788 853 b 743 835 770 853 755 847 b 725 791 731 823 725 808 l 725 217 l 107 835 b 39 848 87 853 64 858 b 0 791 13 836 0 816 l 0 66 b 18 21 0 48 6 33 b 62 3 31 9 45 3 b 107 21 80 3 95 9 b 125 66 119 33 125 48 l 125 639 l 743 21 b 788 3 757 9 771 3 b 812 7 795 3 804 4 b 850 66 838 21 850 40 l 850 791 b 832 835 850 808 844 823 b 788 853 820 847 805 853 z "},"o":{"ha":1035,"x_min":0,"x_max":0,"o":"m 452 897 l 444 897 b 127 766 320 897 215 852 b -3 450 40 678 -3 572 l -3 441 b 127 125 -3 317 40 212 b 444 -7 215 37 320 -7 l 452 -7 b 768 125 576 -7 681 37 b 899 441 856 212 899 317 l 899 450 b 768 766 899 572 856 678 b 452 897 681 852 576 897 z m 766 441 b 674 219 766 354 735 280 b 452 127 612 157 538 127 l 444 127 b 222 219 357 127 283 157 b 130 441 160 280 130 354 l 130 450 b 222 671 130 536 160 610 b 444 763 283 732 357 763 l 452 763 b 674 671 538 763 612 732 b 766 450 735 610 766 536 l 766 441 z "},"p":{"ha":986,"x_min":0,"x_max":0,"o":"m 621 851 l 62 851 b 18 833 45 851 31 845 b 0 789 6 821 0 806 l 0 64 b 18 19 0 46 6 31 b 62 1 31 7 45 1 b 107 19 80 1 95 7 b 125 64 119 31 125 46 l 125 363 l 632 363 b 787 427 692 363 744 385 b 850 581 829 470 850 522 l 850 622 b 783 784 850 685 828 739 b 621 851 739 829 684 851 z m 725 581 b 698 516 725 556 716 534 b 632 489 680 498 658 489 l 125 489 l 125 726 l 621 726 b 694 695 650 726 674 715 b 725 622 715 675 725 650 l 725 581 z "},"q":{"ha":1055,"x_min":0,"x_max":0,"o":"m 489 889 b 130 750 344 893 224 847 b 5 386 37 653 -5 532 b 133 114 18 279 60 189 b 401 -20 205 40 295 -5 b 594 -2 470 -27 534 -22 b 606 9 600 0 604 4 b 602 26 607 16 606 20 l 536 93 b 515 100 530 99 524 101 b 458 96 496 97 477 96 b 210 205 359 96 276 132 b 123 472 143 278 114 368 b 220 672 133 551 165 618 b 420 769 274 727 340 759 b 687 682 525 778 614 749 b 797 433 760 616 797 533 b 747 258 797 369 780 311 b 745 243 745 254 744 249 b 751 231 745 239 747 235 l 803 176 b 821 170 808 171 814 169 b 837 179 827 170 833 173 b 914 458 892 260 918 353 b 783 753 905 575 861 673 b 489 889 704 833 606 879 z m 587 306 b 546 324 576 318 562 324 b 504 308 530 325 516 319 b 486 267 492 296 486 282 b 502 224 485 251 491 237 l 727 -11 b 770 -28 740 -23 754 -28 b 810 -12 784 -28 798 -23 b 829 29 822 -1 828 14 b 812 71 829 45 823 59 l 587 306 z "},"r":{"ha":993,"x_min":0,"x_max":0,"o":"m 708 389 b 838 586 794 432 838 498 l 838 626 b 771 786 838 688 815 741 b 611 852 727 830 673 852 l 62 852 b 18 834 45 852 31 846 b 0 789 6 822 0 807 l 0 67 b 18 22 0 50 6 35 b 62 4 31 10 45 4 b 107 22 80 4 95 10 b 125 67 119 35 125 50 l 125 363 l 435 363 b 645 276 517 363 587 334 b 732 67 703 218 732 149 b 750 22 732 50 738 35 b 795 4 762 10 777 4 b 839 22 812 4 827 10 b 857 67 851 35 857 50 b 708 389 857 196 808 303 z m 622 496 l 125 496 l 125 727 l 611 727 b 682 697 639 727 663 717 b 712 626 702 677 712 654 l 712 586 b 686 523 712 562 703 540 b 622 496 668 505 647 496 z "},"s":{"ha":968,"x_min":0,"x_max":0,"o":"m 666 861 l 167 861 b 49 812 121 861 81 844 b 0 694 16 779 0 740 l 0 533 b 49 415 0 488 16 448 b 167 366 81 382 121 366 l 646 366 b 689 348 663 366 677 360 b 707 304 701 336 707 321 l 707 185 b 689 141 707 168 701 153 b 646 123 677 129 663 123 l 187 123 b 144 141 170 123 156 129 b 125 185 132 153 125 168 l 125 235 b 107 279 125 252 119 267 b 62 297 95 291 80 297 b 18 279 45 297 31 291 b 0 235 6 267 0 252 l 0 185 b 55 53 0 134 18 90 b 187 -3 92 16 136 -3 l 646 -3 b 778 53 697 -3 741 16 b 833 185 814 90 833 134 l 833 304 b 778 437 833 356 814 400 b 646 492 741 473 697 492 l 167 492 b 138 504 155 492 146 496 b 125 533 130 512 125 522 l 125 694 b 138 723 125 705 130 715 b 167 735 146 731 155 735 l 666 735 b 695 723 677 735 687 731 b 707 694 703 715 707 705 l 707 640 b 726 596 707 623 713 608 b 770 578 738 584 753 578 b 814 596 787 578 802 584 b 833 640 827 608 833 623 l 833 694 b 784 812 833 740 817 779 b 666 861 751 844 712 861 z "},"t":{"ha":986,"x_min":0,"x_max":0,"o":"m 788 851 l 63 851 b 18 832 45 851 31 845 b 0 788 6 820 0 806 b 18 744 0 770 6 756 b 63 725 31 732 45 725 l 363 725 l 363 60 b 381 16 363 43 369 28 b 425 -3 393 3 408 -3 b 470 16 443 -3 458 3 b 488 60 482 28 488 43 l 488 725 l 788 725 b 832 744 805 725 820 732 b 850 788 844 756 850 770 b 832 832 850 806 844 820 b 788 851 820 845 805 851 z "},"u":{"ha":986,"x_min":0,"x_max":0,"o":"m 788 859 b 743 840 770 859 755 852 b 725 796 731 828 725 813 l 725 317 b 671 188 725 267 707 224 b 541 134 635 152 592 134 l 309 134 b 180 188 259 134 216 152 b 125 317 144 224 125 267 l 125 796 b 107 840 125 813 119 828 b 63 859 95 852 80 859 b 18 840 45 859 31 852 b 0 796 6 828 0 813 l 0 317 b 91 99 0 232 31 159 b 309 8 151 39 224 8 l 541 8 b 760 99 627 8 699 39 b 850 317 821 159 850 232 l 850 796 b 832 840 850 813 844 828 b 788 859 820 852 805 859 z "},"v":{"ha":998,"x_min":0,"x_max":0,"o":"m 823 847 b 775 851 807 854 791 856 b 739 820 759 846 747 836 l 423 205 l 124 819 b 88 850 116 834 104 845 b 41 848 73 856 56 855 b 9 812 24 840 14 827 b 12 764 3 796 4 780 l 365 37 b 421 2 377 15 395 3 l 422 2 b 477 36 445 2 464 14 l 850 762 b 854 810 858 779 859 795 b 823 847 849 826 839 838 z "},"w":{"ha":1415,"x_min":0,"x_max":0,"o":"m 1240 847 b 1192 851 1224 854 1208 856 b 1156 820 1176 846 1164 836 l 840 205 l 706 481 l 850 762 b 854 810 858 779 859 795 b 823 847 849 826 838 838 b 775 851 807 854 791 856 b 739 820 759 846 747 836 l 637 623 l 541 819 b 505 850 533 834 521 845 b 458 848 490 856 473 855 b 426 812 441 840 431 827 b 429 764 420 796 421 780 l 566 483 l 423 205 l 124 819 b 88 850 116 834 104 845 b 40 848 73 856 56 855 b 8 812 24 840 14 827 b 12 764 3 796 4 780 l 365 37 b 420 2 377 15 395 3 l 421 2 b 477 36 445 2 464 14 l 634 342 l 782 37 b 838 2 794 15 812 3 l 839 2 b 895 36 862 2 881 14 l 1267 762 b 1271 810 1275 779 1276 795 b 1240 847 1266 826 1256 838 z "},"x":{"ha":986,"x_min":0,"x_max":0,"o":"m 832 831 b 788 850 819 844 804 850 b 743 831 772 850 757 844 l 425 513 l 107 831 b 62 850 94 844 79 850 b 18 831 47 850 32 844 b 0 787 6 818 0 803 b 18 743 0 770 6 756 l 336 425 l 18 106 b 0 62 6 92 0 78 b 18 17 0 45 6 31 b 62 -1 32 5 47 -1 b 107 17 79 -1 94 5 l 425 336 l 743 17 b 788 -1 757 5 772 -1 b 832 17 804 -1 819 5 b 850 62 844 31 850 45 b 832 106 850 78 844 92 l 514 425 l 832 743 b 850 787 844 756 850 770 b 832 831 850 803 844 818 z "},"y":{"ha":1001,"x_min":0,"x_max":0,"o":"m 758 847 l 433 522 l 107 847 b 63 865 94 859 79 865 b 18 847 47 865 32 859 b 0 803 6 833 0 819 b 18 758 0 787 6 772 l 370 407 l 370 60 b 389 16 370 43 376 28 b 433 -3 401 4 416 -3 b 477 16 450 -3 465 4 b 496 60 490 28 496 43 l 496 407 l 847 758 b 865 803 859 772 865 787 b 847 847 865 819 859 833 b 803 865 833 859 819 865 b 758 847 787 865 772 859 z "},"z":{"ha":987,"x_min":0,"x_max":0,"o":"m 779 127 l 219 127 l 825 758 b 837 826 842 779 846 801 b 779 864 824 852 804 864 l 72 864 b 27 846 54 864 40 858 b 9 802 15 833 9 819 b 27 757 9 784 15 770 b 72 739 40 745 54 739 l 632 739 l 26 107 b 14 39 9 87 5 64 b 72 1 27 14 47 1 l 779 1 b 824 20 797 1 812 7 b 842 64 836 32 842 47 b 824 109 842 81 836 96 b 779 127 812 121 797 127 z "}}}
